<svg xmlns="http://www.w3.org/2000/svg" viewBox="0 0 1200 675">
  <defs>
    
    <radialGradient id="paperGrad" cx="600" cy="337" r="800" gradientUnits="userSpaceOnUse">
      <stop offset="0%" stop-color="#f7f2ea"/>
      <stop offset="100%" stop-color="#eae0d0"/>
    </radialGradient>
    
    
    <pattern id="hatch" width="8" height="8" patternTransform="rotate(45 0 0)" patternUnits="userSpaceOnUse">
      <line x1="0" y1="0" x2="0" y2="8" stroke="#2a221c" stroke-width="0.8" opacity="0.25"/>
    </pattern>

    <pattern id="denseHatch" width="4" height="4" patternTransform="rotate(30 0 0)" patternUnits="userSpaceOnUse">
      <line x1="0" y1="0" x2="0" y2="4" stroke="#661227" stroke-width="0.6" opacity="0.3"/>
    </pattern>

    
    <filter id="shadow" x="-5%" y="-5%" width="110%" height="110%">
      <feDropShadow dx="3" dy="6" stdDeviation="4" flood-color="#2a221c" flood-opacity="0.18"/>
    </filter>
  </defs>

  
  <rect width="1200" height="675" fill="url(#paperGrad)"/>

  
  <rect x="40" y="40" width="1120" height="595" fill="none" stroke="#2a221c" stroke-width="1.5" opacity="0.4"/>
  <rect x="48" y="48" width="1104" height="579" fill="none" stroke="#2a221c" stroke-width="0.5" opacity="0.2"/>

  
  <path d="M 40 60 L 60 40 M 1160 60 L 1140 40 M 40 615 L 60 635 M 1160 615 L 1140 635" stroke="#661227" stroke-width="1.5" opacity="0.6"/>

  
  
  

  
  <path d="M 150 480 L 250 320 L 320 400 L 450 240 L 580 430 L 700 280 L 820 450 L 930 300 L 1050 480 Z" fill="#eae0d0" stroke="#2a221c" stroke-width="1.5"/>
  
  
  <path d="M 450 240 L 520 400 L 580 430 L 450 240" fill="url(#hatch)"/>
  <path d="M 700 280 L 770 410 L 820 450 L 700 280" fill="url(#hatch)"/>

  
  <polygon points="600,130 780,480 420,480" fill="#f3ecdf" stroke="#2a221c" stroke-width="2.5" filter="url(#shadow)"/>
  
  
  <polygon points="600,130 600,480 780,480" fill="#661227" opacity="0.12"/>
  <polygon points="600,130 600,380 650,480 780,480" fill="url(#denseHatch)"/>

  
  <path d="M 550 220 Q 600 230 650 210" fill="none" stroke="#2a221c" stroke-width="1" opacity="0.4"/>
  <path d="M 510 280 Q 600 300 690 270" fill="none" stroke="#2a221c" stroke-width="1" opacity="0.4"/>
  <path d="M 470 350 Q 600 370 730 330" fill="none" stroke="#2a221c" stroke-width="1" opacity="0.4"/>
  <path d="M 440 420 Q 600 440 760 390" fill="none" stroke="#2a221c" stroke-width="1" opacity="0.4"/>

  
  
  

  
  <path d="M 80 540 C 250 540, 300 420, 500 480 C 650 520, 750 580, 950 520" fill="none" stroke="#2a221c" stroke-width="48" stroke-linecap="round" filter="url(#shadow)"/>
  
  <path d="M 80 540 C 250 540, 300 420, 500 480 C 650 520, 750 580, 950 520" fill="none" stroke="#f3ecdf" stroke-width="40" stroke-linecap="round"/>
  
  <path d="M 80 540 C 250 540, 300 420, 500 480 C 650 520, 750 580, 950 520" fill="none" stroke="#2a221c" stroke-width="40" stroke-dasharray="12 16" stroke-linecap="butt"/>

  
  <path d="M 200 200 C 400 150, 550 280, 800 200 C 950 150, 1050 250, 1120 300" fill="none" stroke="#661227" stroke-width="28" stroke-linecap="round" opacity="0.85" filter="url(#shadow)"/>
  <path d="M 200 200 C 400 150, 550 280, 800 200 C 950 150, 1050 250, 1120 300" fill="none" stroke="#f3ecdf" stroke-width="22" stroke-linecap="round"/>
  <path d="M 200 200 C 400 150, 550 280, 800 200 C 950 150, 1050 250, 1120 300" fill="none" stroke="#661227" stroke-width="22" stroke-dasharray="8 12" stroke-linecap="butt" opacity="0.85"/>

  
  
  

  
  <g transform="translate(220, 320)" filter="url(#shadow)">
    <rect x="-35" y="-30" width="70" height="60" fill="#f3ecdf" stroke="#2a221c" stroke-width="2"/>
    
    <path d="M -15 -10 Q -5 -20 15 -10 Q 5 10 -15 10 Z" fill="none" stroke="#661227" stroke-width="1.5"/>
    <circle cx="-5" cy="-5" r="2" fill="#2a221c"/>
    <path d="M -10 5 Q -5 10 0 5" fill="none" stroke="#2a221c" stroke-width="1.5"/>
  </g>

  
  <g transform="translate(920, 260)" filter="url(#shadow)">
    <rect x="-30" y="-40" width="60" height="80" rx="30" ry="30" fill="#f3ecdf" stroke="#2a221c" stroke-width="2"/>
    <path d="M 0 -40 L 0 40 M -30 0 L 30 0" stroke="#2a221c" stroke-width="1.5"/>
    <path d="M 0 -15 L 12 10 L -12 10 Z" fill="#661227" opacity="0.8"/>
  </g>

  
  <g transform="translate(750, 480)" filter="url(#shadow)">
    <circle cx="0" cy="0" r="32" fill="#f3ecdf" stroke="#2a221c" stroke-width="2"/>
    <path d="M -20 -10 C -10 -25, 20 -20, 15 5 C 10 30, -25 15, -15 -10" fill="none" stroke="#661227" stroke-width="2.5"/>
    <circle cx="0" cy="0" r="4" fill="#2a221c"/>
  </g>

  
  
  

  
  <g transform="translate(100, 110)" filter="url(#shadow)">
    <rect x="0" y="0" width="140" height="70" fill="#f3ecdf" stroke="#2a221c" stroke-width="2"/>
    <line x1="0" y1="24" x2="140" y2="24" stroke="#661227" stroke-width="1.5"/>
    
    <rect x="15" y="35" width="12" height="12" fill="none" stroke="#2a221c" stroke-width="1"/>
    <rect x="35" y="35" width="12" height="12" fill="#661227" opacity="0.8"/>
    <rect x="55" y="35" width="12" height="12" fill="#661227" opacity="0.8"/>
    <rect x="75" y="35" width="12" height="12" fill="#661227" opacity="0.8"/>
    <rect x="95" y="35" width="12" height="12" fill="none" stroke="#2a221c" stroke-width="1"/>
    <rect x="115" y="35" width="12" height="12" fill="none" stroke="#2a221c" stroke-width="1"/>
    
    
    <path d="M 5 5 L 10 5 M 5 5 L 5 10" stroke="#2a221c" stroke-width="1"/>
    <path d="M 135 5 L 130 5 M 135 5 L 135 10" stroke="#2a221c" stroke-width="1"/>
  </g>

  
  <g transform="translate(980, 90)" filter="url(#shadow)">
    <rect x="0" y="20" width="100" height="70" fill="#f3ecdf" stroke="#2a221c" stroke-width="2"/>
    
    <path d="M 0 20 L 100 0 L 100 20 L 0 20 Z" fill="#2a221c"/>
    <path d="M 15 20 L 30 3 L 45 3 L 30 20 Z" fill="#f3ecdf"/>
    <path d="M 55 20 L 70 3 L 85 3 L 70 20 Z" fill="#f3ecdf"/>
    
    <line x1="15" y1="40" x2="85" y2="40" stroke="#2a221c" stroke-width="2" stroke-linecap="round"/>
    <line x1="15" y1="58" x2="60" y2="58" stroke="#661227" stroke-width="2" stroke-linecap="round"/>
    <circle cx="12" cy="10" r="3" fill="#661227"/>
  </g>

  
  <path d="M 380 180 Q 395 170 410 185 Q 425 170 440 180" fill="none" stroke="#2a221c" stroke-width="1.5" stroke-linecap="round"/>
  <path d="M 720 150 Q 732 142 745 155 Q 758 142 770 150" fill="none" stroke="#2a221c" stroke-width="1.5" stroke-linecap="round"/>

  
  <line x1="60" y1="80" x2="60" y2="595" stroke="#661227" stroke-width="1" opacity="0.3"/>
  <line x1="1140" y1="80" x2="1140" y2="595" stroke="#661227" stroke-width="1" opacity="0.3"/>

</svg>