<svg xmlns="http://www.w3.org/2000/svg" viewBox="0 0 1200 675">
  
  <defs>
    
    <rect id="bg" width="1200" height="675" fill="#f4eee1"/>
    
    
    <pattern id="hatch" width="8" height="8" patternUnits="userSpaceOnUse" patternTransform="rotate(45)">
      <line x1="0" y1="0" x2="0" y2="8" stroke="#2a221c" stroke-width="0.6" stroke-opacity="0.15"/>
    </pattern>

    
    <pattern id="crosshatch" width="6" height="6" patternUnits="userSpaceOnUse" patternTransform="rotate(30)">
      <line x1="0" y1="0" x2="0" y2="6" stroke="#2a221c" stroke-width="0.5" stroke-opacity="0.2"/>
      <line x1="0" y1="0" x2="6" y2="0" stroke="#2a221c" stroke-width="0.5" stroke-opacity="0.2"/>
    </pattern>

    
    <pattern id="ledger-dots" width="20" height="20" patternUnits="userSpaceOnUse">
      <circle cx="10" cy="10" r="1" fill="#661227" fill-opacity="0.12"/>
    </pattern>

    
    <radialGradient id="vignette" cx="600" cy="337" r="700" gradientUnits="userSpaceOnUse">
      <stop offset="0%" stop-color="#fff" stop-opacity="0"/>
      <stop offset="70%" stop-color="#dfd2bd" stop-opacity="0.3"/>
      <stop offset="100%" stop-color="#b5a48b" stop-opacity="0.6"/>
    </radialGradient>
  </defs>

  
  use />
  <rect width="1200" height="675" fill="#f3ecdf"/>

  
  <rect x="700" y="80" width="380" height="515" fill="#faf6ef" stroke="#2a221c" stroke-width="1.5" stroke-opacity="0.3"/>
  <rect x="700" y="80" width="380" height="515" fill="url(#ledger-dots)"/>
  
  <line x1="730" y1="120" x2="1050" y2="120" stroke="#661227" stroke-width="1" stroke-opacity="0.4"/>
  <line x1="730" y1="150" x2="1050" y2="150" stroke="#2a221c" stroke-width="0.5" stroke-opacity="0.3"/>
  <line x1="730" y1="180" x2="1050" y2="180" stroke="#2a221c" stroke-width="0.5" stroke-opacity="0.3"/>
  <line x1="730" y1="210" x2="1050" y2="210" stroke="#2a221c" stroke-width="0.5" stroke-opacity="0.3"/>
  <line x1="730" y1="240" x2="1050" y2="240" stroke="#2a221c" stroke-width="0.5" stroke-opacity="0.3"/>
  <line x1="730" y1="270" x2="1050" y2="270" stroke="#2a221c" stroke-width="0.5" stroke-opacity="0.3"/>
  <line x1="730" y1="300" x2="1050" y2="300" stroke="#2a221c" stroke-width="0.5" stroke-opacity="0.3"/>
  <line x1="730" y1="330" x2="1050" y2="330" stroke="#2a221c" stroke-width="0.5" stroke-opacity="0.3"/>
  <line x1="730" y1="360" x2="1050" y2="360" stroke="#2a221c" stroke-width="0.5" stroke-opacity="0.3"/>
  <line x1="730" y1="390" x2="1050" y2="390" stroke="#2a221c" stroke-width="0.5" stroke-opacity="0.3"/>
  
  <line x1="930" y1="120" x2="930" y2="550" stroke="#661227" stroke-width="1" stroke-opacity="0.3"/>
  <line x1="990" y1="120" x2="990" y2="550" stroke="#661227" stroke-width="1" stroke-opacity="0.3"/>

  
  <rect x="745" y="195" width="160" height="12" fill="#661227" fill-opacity="0.15"/>
  <rect x="745" y="255" width="140" height="12" fill="#661227" fill-opacity="0.15"/>
  <rect x="745" y="315" width="175" height="12" fill="#661227" fill-opacity="0.2"/>

  
  <path d="M0,0 L450,0 L200,675 L0,675 Z" fill="#2a221c" fill-opacity="0.06"/>

  
  

  
  <g transform="translate(860, 440)">
    
    <ellipse cx="0" cy="110" rx="90" ry="25" fill="#2a221c" fill-opacity="0.15"/>
    
    
    <circle cx="0" cy="0" r="100" fill="#e6dbc5" stroke="#2a221c" stroke-width="3"/>
    
    
    <path d="M-30,-60 L30,-60 L60,0 L30,60 L-30,60 L-60,0 Z" fill="none" stroke="#2a221c" stroke-width="2"/>
    <path d="M-60,0 L-100,-20 M-30,-60 L-60,-100 M30,-60 L60,-100 M60,0 L100,-20 M30,60 L60,100 M-30,60 L-60,100" stroke="#2a221c" stroke-width="2"/>
    <path d="M-100,-20 L-80,-70 L-60,-100" fill="none" stroke="#2a221c" stroke-width="2"/>
    <path d="M100,-20 L80,-70 L60,-100" fill="none" stroke="#2a221c" stroke-width="2"/>
    
    
    <path d="M -60,40 C -40,70 0,80 40,70" fill="none" stroke="#2a221c" stroke-width="1" stroke-dasharray="3,3"/>
    <path d="M -70,-30 C -50,-60 -10,-70 20,-60" fill="none" stroke="#2a221c" stroke-width="1" stroke-dasharray="3,3"/>
  </g>

  
  <g transform="translate(250, 180) rotate(-6)">
    
    <rect x="0" y="0" width="380" height="420" fill="#e2d4be" stroke="#2a221c" stroke-width="2"/>
    <path d="M0,0 L80,0 L100,30 L380,30" fill="none" stroke="#2a221c" stroke-width="2"/>
    
    
    <rect x="30" y="50" width="320" height="340" fill="#faf6ef" stroke="#2a221c" stroke-width="1"/>
    
    
    <line x1="60" y1="90" x2="250" y2="90" stroke="#2a221c" stroke-width="3" stroke-opacity="0.8"/>
    <line x1="60" y1="120" x2="300" y2="120" stroke="#2a221c" stroke-width="1.5" stroke-opacity="0.5"/>
    <line x1="60" y1="145" x2="280" y2="145" stroke="#2a221c" stroke-width="1.5" stroke-opacity="0.5"/>
    <line x1="60" y1="170" x2="320" y2="170" stroke="#2a221c" stroke-width="1.5" stroke-opacity="0.5"/>
    <line x1="60" y1="195" x2="240" y2="195" stroke="#2a221c" stroke-width="1.5" stroke-opacity="0.5"/>

    
    <g transform="translate(180, 240) rotate(-12)">
      <rect x="0" y="0" width="140" height="50" fill="none" stroke="#661227" stroke-width="3"/>
      <rect x="4" y="4" width="132" height="42" fill="none" stroke="#661227" stroke-width="1"/>
      
      <line x1="15" y1="25" x2="125" y2="25" stroke="#661227" stroke-width="6" stroke-opacity="0.8"/>
    </g>

    
    <line x1="60" y1="310" x2="290" y2="310" stroke="#2a221c" stroke-width="1.5" stroke-opacity="0.5"/>
    <line x1="60" y1="335" x2="200" y2="335" stroke="#2a221c" stroke-width="1.5" stroke-opacity="0.5"/>
  </g>

  
  <g transform="translate(180, 480) rotate(35)">
    
    <rect x="-12" y="-120" width="24" height="280" rx="12" fill="#2a221c" fill-opacity="0.15"/>
    
    <rect x="-10" y="-100" width="20" height="240" rx="4" fill="#2a221c" stroke="#661227" stroke-width="2"/>
    
    <rect x="-10" y="100" width="20" height="8" fill="#d4af37"/>
    <rect x="-10" y="-100" width="20" height="12" fill="#d4af37"/>
    
    <path d="M-10,140 L0,180 L10,140 Z" fill="#d4af37" stroke="#2a221c" stroke-width="1"/>
    <line x1="0" y1="140" x2="0" y2="172" stroke="#2a221c" stroke-width="1.5"/>
    
    <rect x="-3" y="-95" width="4" height="90" rx="2" fill="#d4af37"/>
  </g>

  
  
  <g transform="translate(520, 270) rotate(-22)">
    
    <circle cx="10" cy="15" r="142" fill="#2a221c" fill-opacity="0.2"/>

    
    <circle cx="0" cy="0" r="140" fill="none" stroke="#2a221c" stroke-width="12"/>
    <circle cx="0" cy="0" r="134" fill="none" stroke="#661227" stroke-width="3"/>

    
    <circle cx="0" cy="0" r="128" fill="#faf6ef" fill-opacity="0.75"/>

    
    <path d="M -70,-80 C -30,-110 40,-100 80,-60" fill="none" stroke="#ffffff" stroke-width="12" stroke-linecap="round" stroke-opacity="0.6"/>

    
    <g clip-path="url(#lens-clip)">
      <clipPath id="lens-clip">
        <circle cx="0" cy="0" r="126"/>
      </clipPath>
      
      
      <circle cx="0" cy="0" r="126" fill="#e8dfce"/>
      <path d="M-120,0 L120,0" stroke="#661227" stroke-width="2" stroke-opacity="0.5"/>
      <circle cx="0" cy="0" r="40" fill="none" stroke="#661227" stroke-width="2" stroke-opacity="0.5"/>
      <circle cx="0" cy="0" r="4" fill="#661227" fill-opacity="0.7"/>
      
      
      <circle cx="-50" cy="-30" r="12" fill="none" stroke="#661227" stroke-width="3"/>
      
      
      <path d="M30,30 L50,50 M50,30 L30,50" stroke="#2a221c" stroke-width="3"/>
      <path d="M-20,60 L10,20 L40,70" fill="none" stroke="#2a221c" stroke-width="2" stroke-dasharray="4,4"/>

      
      <circle cx="60" cy="-40" r="22" fill="#2a221c" fill-opacity="0.1"/>
      <path d="M50,-50 L70,-50 L80,-30 L60,-20 L40,-30 Z" fill="none" stroke="#2a221c" stroke-width="1.5"/>
    </g>

    
    <path d="M-90,90 L-220,220 C-240,240 -230,260 -210,270 L-180,280 C-160,290 -140,270 -120,250 L90,90 Z" fill="#2a221c" stroke="#661227" stroke-width="2"/>
    
    <line x1="-130" y1="170" x2="-150" y2="190" stroke="#661227" stroke-width="2"/>
    <line x1="-145" y1="185" x2="-165" y2="205" stroke="#661227" stroke-width="2"/>
    <line x1="-160" y1="200" x2="-180" y2="220" stroke="#661227" stroke-width="2"/>
    <line x1="-175" y1="215" x2="-195" y2="235" stroke="#661227" stroke-width="2"/>
  </g>

  
  <g transform="translate(980, 160)">
    <ellipse cx="0" cy="0" rx="35" ry="25" fill="none" stroke="#2a221c" stroke-width="3" stroke-opacity="0.15"/>
    <ellipse cx="0" cy="0" rx="32" ry="22" fill="none" stroke="#661227" stroke-width="1" stroke-opacity="0.1"/>
  </g>

  
  <rect x="35" y="35" width="1130" height="605" fill="none" stroke="#2a221c" stroke-width="1.5" stroke-opacity="0.4"/>
  <rect x="43" y="43" width="1114" height="589" fill="none" stroke="#2a221c" stroke-width="0.75" stroke-opacity="0.3"/>

  
  <path d="M30,30 L50,30 M30,30 L30,50" stroke="#661227" stroke-width="1" stroke-opacity="0.6"/>
  <path d="M1170,30 L1150,30 M1170,30 L1170,50" stroke="#661227" stroke-width="1" stroke-opacity="0.6"/>
  <path d="M30,645 L50,645 M30,645 L30,625" stroke="#661227" stroke-width="1" stroke-opacity="0.6"/>
  <path d="M1170,645 L1150,645 M1170,645 L1170,625" stroke="#661227" stroke-width="1" stroke-opacity="0.6"/>

  
  <rect width="1200" height="675" fill="url(#vignette)" pointer-events="none"/>
</svg>