<svg xmlns="http://www.w3.org/2000/svg" viewBox="0 0 1200 675">
  <defs>
    
    <rect id="bg" width="1200" height="675" fill="#f3ecdf"/>

    
    <pattern id="hatch" width="8" height="8" patternUnits="userSpaceOnUse" patternTransform="rotate(45)">
      <line x1="0" y1="0" x2="0" y2="8" stroke="#2a221c" stroke-width="0.5" stroke-opacity="0.08"/>
    </pattern>

    <pattern id="dot-grid" width="24" height="24" patternUnits="userSpaceOnUse">
      <circle cx="12" cy="12" r="1" fill="#661227" fill-opacity="0.06"/>
    </pattern>
  </defs>

  
  
  <rect width="1200" height="675" fill="url(#dot-grid)"/>

  
  <g transform="translate(100, 75)">
    
    <rect x="0" y="0" width="1000" height="525" fill="#fdfbf7" stroke="#2a221c" stroke-width="2"/>
    <rect x="10" y="10" width="980" height="505" fill="none" stroke="#2a221c" stroke-width="0.75" stroke-dasharray="4,4"/>

    
    <path d="M 0 350 C 250 320, 350 420, 600 380 C 800 350, 900 400, 1000 360 L 1000 525 L 0 525 Z" fill="#d9e2e8" fill-opacity="0.6"/>
    <path d="M 0 350 C 250 320, 350 420, 600 380 C 800 350, 900 400, 1000 360" fill="none" stroke="#2a221c" stroke-width="1.5"/>
    <path d="M 50 380 C 260 350, 340 450, 580 410 C 780 380, 920 420, 980 390" fill="none" stroke="#2a221c" stroke-width="0.75" stroke-dasharray="2,2"/>

    
    <path d="M 50 150 C 200 130, 300 180, 500 160 C 700 140, 850 190, 950 170" fill="none" stroke="#661227" stroke-width="0.75" stroke-opacity="0.3"/>
    <path d="M 50 180 C 200 160, 300 210, 500 190 C 700 170, 850 220, 950 200" fill="none" stroke="#661227" stroke-width="0.75" stroke-opacity="0.3"/>
    <path d="M 50 210 C 200 190, 300 240, 500 220 C 700 200, 850 250, 950 230" fill="none" stroke="#661227" stroke-width="0.75" stroke-opacity="0.3"/>

    
    
    <g transform="translate(100, 180)">
      
      <polygon points="0,170 120,230 200,180 80,120" fill="#2a221c" fill-opacity="0.15"/>
      
      <polygon points="0,50 0,170 80,210 80,90" fill="#e8dfd1" stroke="#2a221c" stroke-width="1.5"/>
      
      <polygon points="80,90 80,210 200,150 200,30" fill="#d9cebc" stroke="#2a221c" stroke-width="1.5"/>
      
      <polygon points="0,50 80,90 200,30 120,-10" fill="#f3ecdf" stroke="#2a221c" stroke-width="1.5"/>
      
      <line x1="20" y1="70" x2="20" y2="150" stroke="#2a221c" stroke-width="1"/>
      <line x1="50" y1="85" x2="50" y2="165" stroke="#2a221c" stroke-width="1"/>
      <line x1="110" y1="70" x2="170" y2="40" stroke="#2a221c" stroke-width="1"/>
      <line x1="110" y1="100" x2="170" y2="70" stroke="#2a221c" stroke-width="1"/>
      <line x1="110" y1="130" x2="170" y2="100" stroke="#2a221c" stroke-width="1"/>
    </g>

    
    <g transform="translate(380, 110)">
      
      <polygon points="0,240 100,290 180,240 80,190" fill="#2a221c" fill-opacity="0.15"/>
      
      <polygon points="0,40 0,240 80,280 80,80" fill="#661227" fill-opacity="0.85" stroke="#2a221c" stroke-width="1.5"/>
      
      <polygon points="80,80 80,280 180,230 180,30" fill="#520e1f" stroke="#2a221c" stroke-width="1.5"/>
      
      <polygon points="0,40 80,80 180,30 100,-10" fill="#f3ecdf" stroke="#2a221c" stroke-width="1.5"/>
      
      <line x1="20" y1="70" x2="20" y2="250" stroke="#f3ecdf" stroke-width="1" stroke-opacity="0.4"/>
      <line x1="50" y1="85" x2="50" y2="265" stroke="#f3ecdf" stroke-width="1" stroke-opacity="0.4"/>
      <line x1="105" y1="100" x2="155" y2="75" stroke="#f3ecdf" stroke-width="1" stroke-opacity="0.4"/>
      <line x1="105" y1="140" x2="155" y2="115" stroke="#f3ecdf" stroke-width="1" stroke-opacity="0.4"/>
      <line x1="105" y1="180" x2="155" y2="155" stroke="#f3ecdf" stroke-width="1" stroke-opacity="0.4"/>
    </g>

    
    <g transform="translate(680, 210)">
      
      <polygon points="0,140 140,210 220,160 80,90" fill="#2a221c" fill-opacity="0.15"/>
      
      <polygon points="0,50 0,140 90,185 90,95" fill="#e8dfd1" stroke="#2a221c" stroke-width="1.5"/>
      
      <polygon points="90,95 90,185 210,120 210,30" fill="#d9cebc" stroke="#2a221c" stroke-width="1.5"/>
      
      <polygon points="0,50 90,95 210,30 120,-15" fill="#f3ecdf" stroke="#2a221c" stroke-width="1.5"/>
      
      <rect x="25" y="75" width="40" height="40" fill="#d9e2e8" stroke="#2a221c" stroke-width="1"/>
      <line x1="25" y1="95" x2="65" y2="95" stroke="#2a221c" stroke-width="0.75" stroke-dasharray="2,2"/>
    </g>

    
    
    <g transform="translate(900, 60)">
      <circle cx="0" cy="0" r="25" fill="#fdfbf7" stroke="#2a221c" stroke-width="1"/>
      <path d="M 0 -25 L 0 25 M -25 0 L 25 0" stroke="#2a221c" stroke-width="0.75"/>
      <polygon points="0,-20 4,-5 0,-10 -4,-5" fill="#661227"/>
      <polygon points="0,20 4,5 0,10 -4,5" fill="#2a221c"/>
      <circle cx="0" cy="0" r="18" fill="none" stroke="#2a221c" stroke-width="0.5" stroke-dasharray="2,2"/>
    </g>

    
    <g stroke="#2a221c" stroke-width="0.75" stroke-opacity="0.6">
      
      <line x1="50" y1="460" x2="950" y2="460"/>
      <line x1="50" y1="455" x2="50" y2="465"/>
      <line x1="950" y1="455" x2="950" y2="465"/>
      <line x1="380" y1="455" x2="380" y2="465"/>
      <line x1="680" y1="455" x2="680" y2="465"/>

      
      <line x1="180" y1="90" x2="180" y2="460" stroke-dasharray="3,3" stroke-opacity="0.3"/>
      <line x1="460" y1="70" x2="460" y2="460" stroke-dasharray="3,3" stroke-opacity="0.3"/>
      <line x1="770" y1="125" x2="770" y2="460" stroke-dasharray="3,3" stroke-opacity="0.3"/>
    </g>

    
    <g transform="translate(60, 360)" fill="#2a221c" stroke="#2a221c" stroke-width="1">
      <rect x="0" y="0" width="12" height="12" fill="#f3ecdf"/>
      <rect x="16" y="0" width="12" height="12" fill="#661227"/>
      <rect x="32" y="0" width="12" height="12" fill="#f3ecdf"/>
      <rect x="0" y="16" width="12" height="12" fill="#d9cebc"/>
      <rect x="16" y="16" width="12" height="12" fill="#f3ecdf"/>
      <rect x="32" y="16" width="12" height="12" fill="#2a221c"/>
    </g>

    <g transform="translate(850, 400)" fill="#2a221c" stroke="#2a221c" stroke-width="1">
      <rect x="0" y="0" width="12" height="12" fill="#661227"/>
      <rect x="16" y="0" width="12" height="12" fill="#f3ecdf"/>
      <rect x="0" y="16" width="12" height="12" fill="#f3ecdf"/>
      <rect x="16" y="16" width="12" height="12" fill="#d9cebc"/>
    </g>

    
    <path d="M 0 20 L 0 0 L 20 0" fill="none" stroke="#661227" stroke-width="2"/>
    <path d="M 980 0 L 1000 0 L 1000 20" fill="none" stroke="#661227" stroke-width="2"/>
    <path d="M 0 505 L 0 525 L 20 525" fill="none" stroke="#661227" stroke-width="2"/>
    <path d="M 980 525 L 1000 525 L 1000 505" fill="none" stroke="#661227" stroke-width="2"/>

    
    <g transform="translate(500, 260)" stroke="#2a221c" stroke-width="0.5" stroke-opacity="0.4">
      <line x1="-8" y1="0" x2="8" y2="0"/>
      <line x1="0" y1="-8" x2="0" y2="8"/>
    </g>
    <g transform="translate(300, 320)" stroke="#2a221c" stroke-width="0.5" stroke-opacity="0.4">
      <line x1="-6" y1="0" x2="6" y2="0"/>
      <line x1="0" y1="-6" x2="0" y2="6"/>
    </g>
    <g transform="translate(750, 160)" stroke="#2a221c" stroke-width="0.5" stroke-opacity="0.4">
      <line x1="-6" y1="0" x2="6" y2="0"/>
      <line x1="0" y1="-6" x2="0" y2="6"/>
    </g>
  </g>
</svg>