<svg xmlns="http://www.w3.org/2000/svg" viewBox="0 0 1200 675">
  <defs>
    
    <linearGradient id="skyGrad" x1="0%" y1="0%" x2="0%" y2="100%">
      <stop offset="0%" stop-color="#0b0f19" />
      <stop offset="40%" stop-color="#141a29" />
      <stop offset="100%" stop-color="#1b2238" />
    </linearGradient>

    
    <linearGradient id="oceanGrad" x1="0%" y1="0%" x2="0%" y2="100%">
      <stop offset="0%" stop-color="#0b1b2b" />
      <stop offset="50%" stop-color="#07121d" />
      <stop offset="100%" stop-color="#03080e" />
    </linearGradient>

    
    <radialGradient id="moonGlow" cx="75%" cy="25%" r="60%">
      <stop offset="0%" stop-color="#ff7bca" stop-opacity="0.25" />
      <stop offset="40%" stop-color="#9945ff" stop-opacity="0.12" />
      <stop offset="100%" stop-color="#141a29" stop-opacity="0" />
    </radialGradient>

    
    <linearGradient id="sailGrad" x1="0%" y1="0%" x2="100%" y2="100%">
      <stop offset="0%" stop-color="#f3c2f2" />
      <stop offset="35%" stop-color="#d479c7" />
      <stop offset="100%" stop-color="#692476" />
    </linearGradient>

    
    <linearGradient id="sailGradDark" x1="0%" y1="0%" x2="100%" y2="100%">
      <stop offset="0%" stop-color="#a6589e" />
      <stop offset="100%" stop-color="#3d1547" />
    </linearGradient>

    
    <linearGradient id="woodGrad" x1="0%" y1="0%" x2="0%" y2="100%">
      <stop offset="0%" stop-color="#2a233c" />
      <stop offset="100%" stop-color="#0e0a14" />
    </linearGradient>

    
    <linearGradient id="goldGrad" x1="0%" y1="0%" x2="100%" y2="100%">
      <stop offset="0%" stop-color="#ffd76a" />
      <stop offset="100%" stop-color="#cc8a27" />
    </linearGradient>
    
    <radialGradient id="lanternGlow" cx="50%" cy="50%" r="50%">
      <stop offset="0%" stop-color="#ffecb6" stop-opacity="1" />
      <stop offset="50%" stop-color="#ff9b3b" stop-opacity="0.6" />
      <stop offset="100%" stop-color="#ff9b3b" stop-opacity="0" />
    </radialGradient>

    
    <radialGradient id="vignette" cx="50%" cy="50%" r="70%">
      <stop offset="70%" stop-color="#000000" stop-opacity="0" />
      <stop offset="100%" stop-color="#03050a" stop-opacity="0.65" />
    </radialGradient>
    
    
    <linearGradient id="waveHighlight" x1="0%" y1="0%" x2="100%" y2="0%">
      <stop offset="0%" stop-color="#ff7bca" stop-opacity="0" />
      <stop offset="50%" stop-color="#ff7bca" stop-opacity="0.4" />
      <stop offset="100%" stop-color="#9945ff" stop-opacity="0" />
    </linearGradient>
  </defs>

  
  <rect width="1200" height="675" fill="url(#skyGrad)" />
  <rect width="1200" height="675" fill="url(#moonGlow)" />

  
  <g fill="#ffffff" opacity="0.6">
    <circle cx="150" cy="80" r="1.5" />
    <circle cx="280" cy="120" r="1" />
    <circle cx="420" cy="60" r="2" opacity="0.8" />
    <circle cx="650" cy="95" r="1" />
    <circle cx="890" cy="70" r="1.5" />
    <circle cx="1050" cy="140" r="2" opacity="0.9" />
    <circle cx="980" cy="50" r="1" />
    <circle cx="50" cy="200" r="1.5" opacity="0.4" />
  </g>

  
  <path d="M0 380 Q 200 350, 450 370 T 900 360 T 1200 375 L 1200 440 L 0 440 Z" fill="#141a2b" opacity="0.7" />
  <path d="M0 395 Q 300 375, 600 390 T 1200 385 L 1200 440 L 0 440 Z" fill="#0d1422" />

  
  <rect x="0" y="420" width="1200" height="255" fill="url(#oceanGrad)" />

  
  <path d="M0 430 Q 150 420, 300 435 T 600 430 T 900 435 T 1200 425 L 1200 445 L 0 445 Z" fill="#1a253b" opacity="0.5" />
  
  
  <circle cx="850" cy="270" r="110" fill="none" stroke="#ff7bca" stroke-width="1.5" opacity="0.3" />
  <circle cx="850" cy="270" r="95" fill="none" stroke="#9945ff" stroke-width="1" opacity="0.2" />
  <circle cx="850" cy="270" r="80" fill="#ff7bca" opacity="0.15" />

  
  <ellipse cx="850" cy="500" rx="120" ry="8" fill="#ff7bca" opacity="0.15" />
  <ellipse cx="850" cy="540" rx="180" ry="10" fill="#9945ff" opacity="0.1" />
  <ellipse cx="850" cy="590" rx="240" ry="12" fill="#ff7bca" opacity="0.05" />

  
  
  <g transform="translate(320, 165)">
    
    
    <ellipse cx="140" cy="290" rx="160" ry="15" fill="#4a154b" opacity="0.3" />

    
    <g stroke="#080b12" stroke-width="2.5" opacity="0.85">
      
      <line x1="40" y1="230" x2="40" y2="-20" />
      <line x1="140" y1="245" x2="140" y2="-60" />
      <line x1="240" y1="235" x2="240" y2="10" />

      
      <line x1="10" y1="20" x2="70" y2="20" stroke-width="2" />
      <line x1="-5" y1="80" x2="85" y2="80" stroke-width="2" />
      
      <line x1="100" y1="-10" x2="180" y2="-10" stroke-width="2" />
      <line x1="85" y1="60" x2="195" y2="60" stroke-width="2" />
      <line x1="70" y1="130" x2="210" y2="130" stroke-width="2" />

      <line x1="210" y1="40" x2="270" y2="40" stroke-width="2" />
      <line x1="200" y1="100" x2="280" y2="100" stroke-width="2" />

      
      <line x1="140" y1="210" x2="-40" y2="140" stroke-width="3" />
      
      
      <line x1="140" y1="-60" x2="-40" y2="140" stroke-width="1" opacity="0.5" />
      <line x1="140" y1="-60" x2="280" y2="220" stroke-width="1" opacity="0.5" />
      <line x1="40" y1="-20" x2="140" y2="245" stroke-width="1" opacity="0.5" />
      <line x1="240" y1="10" x2="140" y2="245" stroke-width="1" opacity="0.5" />
    </g>

    
    
    <path d="M 40 25 Q 75 50, 70 80 Q 40 75, 10 75 Q 15 45, 40 25 Z" fill="url(#sailGradDark)" />
    <path d="M 40 85 Q 90 110, 85 140 Q 40 135, -5 130 Q 0 105, 40 85 Z" fill="url(#sailGrad)" />

    
    <path d="M 140 -5 Q 190 25, 180 60 Q 140 55, 100 60 Q 110 25, 140 -5 Z" fill="url(#sailGradDark)" />
    <path d="M 140 65 Q 200 95, 195 130 Q 140 125, 85 130 Q 95 95, 140 65 Z" fill="url(#sailGrad)" />
    <path d="M 140 135 Q 220 160, 210 195 Q 140 190, 70 190 Q 80 165, 140 135 Z" fill="url(#sailGradDark)" />

    
    <path d="M 240 45 Q 280 65, 270 100 Q 240 95, 210 100 Q 215 70, 240 45 Z" fill="url(#sailGrad)" />
    <path d="M 240 105 Q 290 125, 280 155 Q 240 150, 200 150 Q 205 125, 240 105 Z" fill="url(#sailGradDark)" />

    
    <path d="M 140 210 Q 50 170, -40 140 Q 30 180, 140 225 Z" fill="url(#sailGrad)" opacity="0.9" />
    <path d="M 140 190 Q 70 155, 10 130 Q 60 165, 140 205 Z" fill="url(#sailGradDark)" opacity="0.8" />

    
    
    <path d="M -30 200 Q 40 250, 140 250 Q 250 250, 290 210 Q 310 180, 310 170 L 290 170 Q 270 200, 230 205 L 30 200 Q -10 200, -30 170 Z" fill="url(#woodGrad)" stroke="#1a1325" stroke-width="2" />
    
    
    <path d="M 230 205 Q 260 205, 285 170 L 280 115 Q 280 105, 270 105 L 220 105 Q 210 105, 210 115 L 215 205 Z" fill="url(#woodGrad)" stroke="#1a1325" stroke-width="2" />
    
    
    <rect x="230" y="125" width="12" height="18" rx="3" fill="url(#goldGrad)" />
    <rect x="250" y="125" width="12" height="18" rx="3" fill="url(#goldGrad)" />
    <rect x="240" y="155" width="16" height="22" rx="4" fill="url(#goldGrad)" />
    <circle cx="248" cy="112" r="8" fill="url(#goldGrad)" />
    <circle cx="248" cy="112" r="14" fill="url(#lanternGlow)" opacity="0.8" />

    
    <path d="M -15 188 Q 120 220, 275 185" fill="none" stroke="url(#goldGrad)" stroke-width="3" />
    <path d="M 50 175 Q 140 200, 230 175" fill="none" stroke="url(#goldGrad)" stroke-width="2" opacity="0.8" />
    
    
    <circle cx="60" cy="215" r="3.5" fill="url(#goldGrad)" />
    <circle cx="85" cy="217" r="3.5" fill="url(#goldGrad)" />
    <circle cx="110" cy="218" r="3.5" fill="url(#goldGrad)" />
    <circle cx="135" cy="218" r="3.5" fill="url(#goldGrad)" />
    <circle cx="160" cy="217" r="3.5" fill="url(#goldGrad)" />
    <circle cx="185" cy="215" r="3.5" fill="url(#goldGrad)" />

    
    <path d="M -30 170 Q -55 160, -45 140 Q -35 150, -25 155 Z" fill="url(#goldGrad)" />
    <circle cx="-47" cy="138" r="6" fill="url(#lanternGlow)" />

  </g>

  
  
  <g>
    
    <path d="M0 500 Q 200 480, 450 510 T 950 495 T 1200 505 L 1200 675 L 0 675 Z" fill="#07101a" />
    <path d="M0 500 Q 200 480, 450 510 T 950 495 T 1200 505" fill="none" stroke="url(#waveHighlight)" stroke-width="2" opacity="0.6" />

    
    <path d="M0 560 Q 300 535, 650 565 T 1200 555 L 1200 675 L 0 675 Z" fill="#04090f" />
    <path d="M0 560 Q 300 535, 650 565 T 1200 555" fill="none" stroke="#ff7bca" stroke-width="1.5" opacity="0.3" />

    
    <g fill="#ff7bca" opacity="0.7">
      <ellipse cx="250" cy="530" rx="4" ry="2" transform="rotate(-15 250 530)" />
      <ellipse cx="280" cy="535" rx="3" ry="1.5" transform="rotate(25 280 535)" />
      <ellipse cx="620" cy="580" rx="5" ry="2" transform="rotate(10 620 580)" />
      <ellipse cx="645" cy="585" rx="3" ry="1.5" transform="rotate(-30 645 585)" />
      <ellipse cx="900" cy="520" rx="4" ry="2" transform="rotate(20 900 520)" />
    </g>

    
    <path d="M0 620 Q 180 600, 400 625 T 850 615 T 1200 630 L 1200 675 L 0 675 Z" fill="#020407" />
    <path d="M0 620 Q 180 600, 400 625 T 850 615 T 1200 630" fill="none" stroke="#9945ff" stroke-width="2" opacity="0.4" />
  </g>

  
  <linearGradient id="fogLeft" x1="0%" y1="0%" x2="100%" y2="0%">
    <stop offset="0%" stop-color="#0b0f19" stop-opacity="0.8" />
    <stop offset="100%" stop-color="#0b0f19" stop-opacity="0" />
  </linearGradient>
  <rect x="0" y="0" width="150" height="675" fill="url(#fogLeft)" />

  <linearGradient id="fogRight" x1="100%" y1="0%" x2="0%" y2="0%">
    <stop offset="0%" stop-color="#0b0f19" stop-opacity="0.6" />
    <stop offset="100%" stop-color="#0b0f19" stop-opacity="0" />
  </linearGradient>
  <rect x="1050" y="0" width="150" height="675" fill="url(#fogRight)" />

  
  <rect width="1200" height="675" fill="url(#vignette)" pointer-events="none" />

  
  <rect x="20" y="20" width="1160" height="635" fill="none" stroke="#ff7bca" stroke-width="1" opacity="0.25" />
  <rect x="28" y="28" width="1144" height="619" fill="none" stroke="#ffffff" stroke-width="0.5" opacity="0.1" />

</svg>