<svg xmlns="http://www.w3.org/2000/svg" viewBox="0 0 1200 675">
  <defs>
    
    <filter id="paper-noise" x="0%" y="0%" width="100%" height="100%">
      <feTurbulence type="fractalNoise" baseFrequency="0.65" numOctaves="3" stitchTiles="stitch" result="noise" />
      <feColorMatrix type="matrix" values="
        1 0 0 0 0
        0 1 0 0 0
        0 0 1 0 0
        0 0 0 0.08 0" in="noise" result="coloredNoise" />
      <feComposite operator="in" in2="SourceGraphic" in="coloredNoise" result="toneNoise" />
      <feBlend mode="multiply" in="SourceGraphic" in2="toneNoise" />
    </filter>
    
    
    <pattern id="hatch-dense" width="8" height="8" patternUnits="userSpaceOnUse" patternTransform="rotate(45)">
      <line x1="0" y1="0" x2="0" y2="8" stroke="#2a221c" stroke-width="0.8" opacity="0.35" />
    </pattern>
    <pattern id="hatch-sparse" width="12" height="12" patternUnits="userSpaceOnUse" patternTransform="rotate(-30)">
      <line x1="0" y1="0" x2="0" y2="12" stroke="#661227" stroke-width="0.6" opacity="0.25" />
    </pattern>
    <pattern id="dot-grid" width="20" height="20" patternUnits="userSpaceOnUse">
      <circle cx="10" cy="10" r="1" fill="#7a6f63" opacity="0.3" />
    </pattern>
  </defs>

  
  <rect width="1200" height="675" fill="#f3ecdf" />
  <rect width="1200" height="675" fill="#efe8db" filter="url(#paper-noise)" />

  
  <rect x="40" y="35" width="1120" height="605" fill="none" stroke="#2a221c" stroke-width="1.5" opacity="0.8" />
  <rect x="48" y="43" width="1104" height="589" fill="none" stroke="#2a221c" stroke-width="0.5" opacity="0.4" />

  
  <rect x="120" y="100" width="420" height="475" fill="#e8decb" opacity="0.5" />
  <rect x="120" y="100" width="420" height="475" fill="url(#dot-grid)" />
  <rect x="120" y="100" width="420" height="475" fill="none" stroke="#2a221c" stroke-width="1" />

  
  <line x1="540" y1="180" x2="660" y2="180" stroke="#661227" stroke-width="1" stroke-dasharray="4 4" opacity="0.6" />
  <line x1="540" y1="480" x2="660" y2="480" stroke="#661227" stroke-width="1" stroke-dasharray="4 4" opacity="0.6" />
  <circle cx="540" cy="180" r="3" fill="#661227" />
  <circle cx="540" cy="480" r="3" fill="#661227" />

  
  
  <rect x="150" y="130" width="360" height="415" fill="#fdfbf7" stroke="#2a221c" stroke-width="2" />
  
  
  <circle cx="180" cy="160" r="2" fill="#661227" opacity="0.2" />
  <circle cx="200" cy="160" r="2" fill="#661227" opacity="0.2" />
  <circle cx="220" cy="160" r="2" fill="#661227" opacity="0.2" />
  <circle cx="180" cy="180" r="2" fill="#661227" opacity="0.2" />
  <circle cx="200" cy="180" r="2" fill="#661227" opacity="0.2" />
  <circle cx="220" cy="180" r="2" fill="#661227" opacity="0.2" />

  
  <path d="M 150 250 L 510 230" stroke="#2a221c" stroke-width="1.5" opacity="0.4" />
  <path d="M 320 130 L 300 545" stroke="#2a221c" stroke-width="1.5" opacity="0.4" />

  
  
  <path d="M 380 200 Q 420 220 440 280 L 420 420 L 380 400 L 390 300 Z" fill="#2a221c" opacity="0.85" />
  <circle cx="410" cy="190" r="18" fill="#2a221c" />
  
  <path d="M 390 250 L 420 270 M 385 280 L 415 300" stroke="#efe8db" stroke-width="1.5" />

  
  <g fill="none" stroke="#661227" stroke-width="3" stroke-linecap="round" stroke-linejoin="round">
    
    <path d="M 230 450 L 270 380 L 240 330 M 270 380 L 320 350 L 290 280" />
    <path d="M 270 380 L 290 430 L 260 480" />
    <path d="M 290 280 L 270 240" />
  </g>
  <circle cx="265" cy="230" r="14" fill="#661227" />
  
  
  <path d="M 210 320 L 170 300 M 220 350 L 160 360 M 200 400 L 150 420" stroke="#2a221c" stroke-width="1.5" opacity="0.7" />
  <path d="M 450 350 L 490 330 M 440 390 L 500 400" stroke="#2a221c" stroke-width="1.5" opacity="0.7" />

  
  <path d="M 135 130 L 145 130 M 140 125 L 140 135" stroke="#2a221c" stroke-width="1" />
  <path d="M 515 130 L 525 130 M 520 125 L 520 135" stroke="#2a221c" stroke-width="1" />
  <path d="M 135 545 L 145 545 M 140 540 L 140 550" stroke="#2a221c" stroke-width="1" />

  
  <circle cx="330" cy="115" r="6" fill="#661227" stroke="#2a221c" stroke-width="1.5" />
  <circle cx="330" cy="113" r="2" fill="#efe8db" />


  
  
  <rect x="660" y="100" width="420" height="475" fill="#fdfbf7" stroke="#2a221c" stroke-width="2" />

  
  <rect x="660" y="100" width="420" height="60" fill="#2a221c" />
  <rect x="660" y="515" width="420" height="60" fill="#2a221c" />

  
  <path d="M 700 190 L 720 190 M 710 180 L 710 200" stroke="#efe8db" stroke-width="1" opacity="0.6" />
  <path d="M 1040 430 L 1060 430 M 1050 420 L 1050 440" stroke="#efe8db" stroke-width="1" opacity="0.6" />
  <rect x="730" y="180" width="340" height="275" fill="none" stroke="#efe8db" stroke-width="0.5" stroke-dasharray="6 4" opacity="0.4" />

  
  <rect x="730" y="180" width="340" height="275" fill="url(#hatch-dense)" />

  
  
  <path d="M 760 455 L 760 250 L 790 220 L 790 455 Z" fill="#2a221c" opacity="0.2" />
  <path d="M 1010 455 L 1010 270 L 980 240 L 980 455 Z" fill="#2a221c" opacity="0.15" />

  
  <g transform="translate(900, 230)">
    
    <path d="M 20 20 L 60 40 L 50 180 L 10 170 Z" fill="#2a221c" />
    <path d="M 15 35 L 55 25 L 70 80 L 30 90 Z" fill="#661227" opacity="0.8" />
    
    <path d="M 25 5 Q 40 -5 50 15 L 40 35 L 20 25 Z" fill="#2a221c" />
    
    <line x1="20" y1="50" x2="55" y2="60" stroke="#efe8db" stroke-width="1.5" />
    <line x1="18" y1="70" x2="52" y2="80" stroke="#efe8db" stroke-width="1.5" />
    <line x1="15" y1="90" x2="48" y2="100" stroke="#efe8db" stroke-width="1.5" />
  </g>

  
  <g transform="translate(770, 250)">
    
    <path d="M 50 30 L 90 45 L 80 150 L 40 140 Z" fill="#2a221c" />
    
    <path d="M 55 35 L 85 45 L 75 110 L 45 100 Z" fill="#661227" />
    
    <path d="M 55 50 Q 70 60 80 55 M 52 70 Q 68 80 77 75 M 50 90 Q 65 100 74 95" fill="none" stroke="#efe8db" stroke-width="1" opacity="0.8" />
    
    <path d="M 45 5 Q 60 -10 75 10 L 65 35 L 35 25 Z" fill="#2a221c" />
    
    <polygon points="50,12 60,8 63,16 53,18" fill="#efe8db" />
    
    <path d="M 80 60 L 120 40 L 130 55" fill="none" stroke="#2a221c" stroke-width="14" stroke-linecap="round" stroke-linejoin="round" />
    <path d="M 40 140 L 25 180 L 10 190" fill="none" stroke="#2a221c" stroke-width="14" stroke-linecap="round" stroke-linejoin="round" />
    <path d="M 80 140 L 95 190 L 115 200" fill="none" stroke="#2a221c" stroke-width="12" stroke-linecap="round" stroke-linejoin="round" />
  </g>

  
  <path d="M 660 130 L 820 260" stroke="#661227" stroke-width="1.5" stroke-dasharray="3 3" opacity="0.7" />
  <circle cx="820" cy="260" r="4" fill="#661227" />


  
  
  <g transform="translate(600, 337)">
    
    <circle cx="0" cy="0" r="55" fill="#efe8db" stroke="#2a221c" stroke-width="4" />
    <circle cx="0" cy="0" r="45" fill="none" stroke="#661227" stroke-width="2" />
    
    
    <line x1="-55" y1="0" x2="-45" y2="0" stroke="#2a221c" stroke-width="3" />
    <line x1="45" y1="0" x2="55" y2="0" stroke="#2a221c" stroke-width="3" />
    <line x1="0" y1="-55" x2="0" y2="-45" stroke="#2a221c" stroke-width="3" />
    <line x1="0" y1="45" x2="0" y2="55" stroke="#2a221c" stroke-width="3" />

    
    <circle cx="0" cy="0" r="42" fill="#2a221c" opacity="0.08" />
    <path d="M -30 -20 Q 0 -40 30 -20" fill="none" stroke="#efe8db" stroke-width="3" opacity="0.8" />
    <path d="M -20 30 Q 0 40 20 30" fill="none" stroke="#661227" stroke-width="2" opacity="0.6" />

    
    <circle cx="0" cy="0" r="3" fill="#661227" />
  </g>

  
  <path d="M 555 315 L 575 325" stroke="#2a221c" stroke-width="2" />
  <path d="M 645 315 L 625 325" stroke="#2a221c" stroke-width="2" />
  <path d="M 555 360 L 575 350" stroke="#2a221c" stroke-width="2" />
  <path d="M 645 360 L 625 350" stroke="#2a221c" stroke-width="2" />


  
  
  <g transform="translate(120, 600)" stroke="#2a221c" stroke-width="1" opacity="0.6">
    <line x1="0" y1="0" x2="960" y2="0" />
    <line x1="0" y1="-5" x2="0" y2="5" />
    <line x1="120" y1="-3" x2="120" y2="3" />
    <line x1="240" y1="-5" x2="240" y2="5" />
    <line x1="360" y1="-3" x2="360" y2="3" />
    <line x1="480" y1="-5" x2="480" y2="5" />
    <line x1="600" y1="-3" x2="600" y2="3" />
    <line x1="720" y1="-5" x2="720" y2="5" />
    <line x1="840" y1="-3" x2="840" y2="3" />
    <line x1="960" y1="-5" x2="960" y2="5" />
  </g>

  
  <path d="M 55 50 L 75 50 M 55 50 L 55 70" fill="none" stroke="#661227" stroke-width="1.5" />
  <path d="M 1145 50 L 1125 50 M 1145 50 L 1145 70" fill="none" stroke="#661227" stroke-width="1.5" />
  <path d="M 55 625 L 75 625 M 55 625 L 55 605" fill="none" stroke="#661227" stroke-width="1.5" />
  <path d="M 1145 625 L 1125 625 M 1145 625 L 1145 605" fill="none" stroke="#661227" stroke-width="1.5" />

</svg>