<svg xmlns="http://www.w3.org/2000/svg" viewBox="0 0 1200 675">
  
  <rect width="1200" height="675" fill="#f3ecdf" />
  
  
  <g stroke="#2a221c" stroke-width="0.5" opacity="0.08">
    <line x1="0" y1="50" x2="1200" y2="50" />
    <line x1="0" y1="150" x2="1200" y2="150" />
    <line x1="0" y1="250" x2="1200" y2="250" />
    <line x1="0" y1="350" x2="1200" y2="350" />
    <line x1="0" y1="450" x2="1200" y2="450" />
    <line x1="0" y1="550" x2="1200" y2="550" />
    <line x1="0" y1="625" x2="1200" y2="625" />
  </g>

  
  <g stroke="#8c7a6b" stroke-width="0.75" opacity="0.3" fill="none">
    <circle cx="600" cy="337.5" r="260" />
    <circle cx="600" cy="337.5" r="190" />
    <circle cx="600" cy="337.5" r="120" />
    <circle cx="600" cy="337.5" r="50" />
    <line x1="300" y1="337.5" x2="900" y2="337.5" />
    <line x1="600" y1="37.5" x2="600" y2="637.5" />
    
    
    <line x1="387" y1="124.5" x2="813" y2="550.5" />
    <line x1="387" y1="550.5" x2="813" y2="124.5" />
  </g>

  
  <rect x="0" y="0" width="1200" height="40" fill="#2a221c" />
  <rect x="0" y="635" width="1200" height="40" fill="#2a221c" />
  
  
  <g stroke="#efe8db" stroke-width="1.5" opacity="0.8" fill="none">
    <path d="M 30 20 L 50 20 M 40 10 L 40 30" />
    <path d="M 1170 20 L 1150 20 M 1160 10 L 1160 30" />
    <circle cx="600" cy="20" r="4" fill="#efe8db" />
  </g>

  
  <polygon points="1050,40 1200,40 1200,220" fill="#661227" opacity="0.85" />
  <polygon points="0,635 150,635 0,485" fill="#661227" opacity="0.85" />

  
  <g transform="translate(600, 337.5)">
    
    
    <g transform="translate(0, 0)">
      
      <rect x="-212" y="-137" width="424" height="274" fill="#2a221c" opacity="0.15" rx="4" />
      
      
      <rect x="-210" y="-135" width="420" height="270" fill="#ded4c5" stroke="#2a221c" stroke-width="4" rx="2" />
      
      
      <rect x="-185" y="-110" width="370" height="220" fill="#f3ecdf" stroke="#2a221c" stroke-width="2" />
      
      
      <g stroke="#661227" stroke-width="1.5" opacity="0.7">
        <line x1="-15" y1="0" x2="15" y2="0" />
        <line x1="0" y1="-15" x2="0" y2="15" />
        <circle cx="0" cy="0" r="25" fill="none" />
      </g>
    </g>

    
    <g transform="translate(0, -135)">
      
      <path d="M -210,-40 L -170,-40 L -210,0 Z" fill="#2a221c" />
      <path d="M -170,-40 L -90,-40 L -210,8 L -210,0 Z" fill="#661227" />
      <path d="M -90,-40 L -10,-40 L -130,0 L -210,40 L -210,48 L -170,48 Z" fill="#2a221c" opacity="0" /> 
      
      
      <path d="M -210,0 L 210,-35 L 210,-55 L -210,-20 Z" fill="#2a221c" />
      
      
      <path d="M -170,-23 L -130,-26 L -130,-6 L -170,-3 Z" fill="#f3ecdf" />
      <path d="M -110,-28 L -70,-31 L -70,-11 L -110,-8 Z" fill="#f3ecdf" />
      <path d="M -50,-33 L -10,-36 L -10,-16 L -50,-13 Z" fill="#f3ecdf" />
      <path d="M 10,-38 L 50,-41 L 50,-21 L 10,-18 Z" fill="#f3ecdf" />
      <path d="M 70,-43 L 110,-46 L 110,-26 L 70,-23 Z" fill="#f3ecdf" />
      <path d="M 130,-48 L 170,-51 L 170,-31 L 130,-28 Z" fill="#f3ecdf" />
    </g>

    
    <g clip-path="url(#screen-clip)" stroke="#2a221c" fill="none">
      <clipPath id="screen-clip">
        <rect x="-185" y="-110" width="370" height="220" />
      </clipPath>
      
      
      <path d="M -200,60 Q -120,20 -40,80 T 120,40 T 220,90" stroke-width="1.5" opacity="0.6" />
      <path d="M -200,80 Q -100,40 -20,100 T 140,60 T 220,110" stroke-width="1" opacity="0.4" />
      <path d="M -200,40 Q -140,0 -60,50 T 100,20 T 220,70" stroke-width="1" opacity="0.4" />
      
      
      <rect x="-120" y="-70" width="80" height="110" stroke-width="1.5" fill="#ded4c5" fill-opacity="0.3" />
      <polyline points="-120,-30 -40,-30" stroke-width="1" />
      <polyline points="-120,10 -40,10" stroke-width="1" />
      
      <polygon points="20,40 80,-20 140,40" stroke-width="1.5" fill="#661227" fill-opacity="0.15" />
      <line x1="80" y1="-20" x2="80" y2="40" stroke-width="1" stroke-dasharray="3,3" />

      
      <path d="M -170,85 L -170,95 M -170,90 L -150,90 M -150,85 L -150,95" stroke-width="1" />
      <path d="M 150,85 L 150,95 M 130,90 L 150,90 M 130,85 L 130,95" stroke-width="1" />
    </g>

  </g>

  
  <g transform="translate(120, 337.5)">
    
    <g transform="translate(-300, -50)">
      <rect x="0" y="0" width="140" height="180" fill="#ded4c5" stroke="#2a221c" transform="rotate(-6)" stroke-width="1.5" />
      <line x1="20" y1="30" x2="100" y2="30" stroke="#2a221c" stroke-width="2" transform="rotate(-6)" opacity="0.5" />
      <line x1="20" y1="50" x2="115" y2="50" stroke="#2a221c" stroke-width="1" transform="rotate(-6)" opacity="0.4" />
      <line x1="20" y1="70" x2="90" y2="70" stroke="#2a221c" stroke-width="1" transform="rotate(-6)" opacity="0.4" />
      <line x1="20" y1="90" x2="105" y2="90" stroke="#2a221c" stroke-width="1" transform="rotate(-6)" opacity="0.4" />
    </g>

    <g transform="translate(-270, -30)">
      
      <rect x="0" y="0" width="140" height="180" fill="#f3ecdf" stroke="#2a221c" transform="rotate(3)" stroke-width="2" />
      
      <line x1="20" y1="25" x2="120" y2="25" stroke="#661227" stroke-width="3" transform="rotate(3)" />
      
      <g stroke="#2a221c" stroke-width="1.5" transform="rotate(3)" opacity="0.7">
        <line x1="20" y1="45" x2="110" y2="45" />
        <line x1="20" y1="60" x2="120" y2="60" />
        <line x1="20" y1="75" x2="95" y2="75" />
        <line x1="20" y1="90" x2="115" y2="90" />
        <line x1="20" y1="105" x2="80" y2="105" />
        <line x1="20" y1="120" x2="105" y2="120" />
        <line x1="20" y1="135" x2="100" y2="135" />
      </g>
      
      <path d="M 25,155 Q 40,145 60,158 T 90,152" fill="none" stroke="#661227" stroke-width="2" transform="rotate(3)" />
    </g>
  </g>

  
  <g transform="translate(900, 337.5)">
    
    <g transform="translate(100, -30)">
      <circle cx="0" cy="0" r="65" fill="none" stroke="#2a221c" stroke-width="1.5" />
      <circle cx="0" cy="0" r="58" fill="none" stroke="#2a221c" stroke-width="0.75" stroke-dasharray="4,2" />
      
      
      <polygon points="0,-65 6,-15 0,0" fill="#661227" />
      <polygon points="0,65 -6,15 0,0" fill="#2a221c" />
      <polygon points="65,0 15,6 0,0" fill="#2a221c" />
      <polygon points="-65,0 -15,-6 0,0" fill="#2a221c" />
      
      <polygon points="0,-65 -6,-15 0,0" fill="#2a221c" opacity="0.5" />
      <polygon points="0,65 6,15 0,0" fill="#661227" opacity="0.5" />
      
      <circle cx="0" cy="0" r="6" fill="#661227" />
      <circle cx="0" cy="0" r="2" fill="#f3ecdf" />
    </g>

    
    <g stroke="#2a221c" stroke-width="1" opacity="0.4">
      <line x1="-30" y1="80" x2="60" y2="40" />
      <line x1="-20" y1="100" x2="80" y2="60" />
      <line x1="-40" y1="60" x2="40" y2="20" />
    </g>
  </g>

  
  <rect x="15" y="15" width="1170" height="645" fill="none" stroke="#2a221c" stroke-width="1" opacity="0.3" />
  <rect x="21" y="21" width="1158" height="633" fill="none" stroke="#2a221c" stroke-width="0.5" opacity="0.15" />

  
  <g stroke="#2a221c" stroke-width="1.5" opacity="0.6">
    <path d="M 15 35 L 15 15 L 35 15" fill="none" />
    <path d="M 1185 35 L 1185 15 L 1165 15" fill="none" />
    <path d="M 15 640 L 15 660 L 35 660" fill="none" />
    <path d="M 1185 640 L 1185 660 L 1165 660" fill="none" />
  </g>
</svg>