<svg xmlns="http://www.w3.org/2000/svg" viewBox="0 0 1600 900" width="1600" height="900"><defs><filter id="g"><feTurbulence type="fractalNoise" baseFrequency=".9" numOctaves="2" stitchTiles="stitch"/><feColorMatrix values="0 0 0 0 .36 0 0 0 0 .27 0 0 0 0 .17 0 0 0 .06 0"/></filter></defs><rect width="1600" height="900" fill="#efe8db"/><path d="M490 260 L800 150 L1110 260 Z" fill="none" stroke="#2a221c" stroke-width="2.2"/><rect x="490" y="260" width="620" height="22" fill="none" stroke="#2a221c" stroke-width="1.8"/><rect x="518" y="282" width="44" height="358" fill="none" stroke="#2a221c" stroke-width="1.6"/><line x1="526" y1="290" x2="526" y2="632" stroke="rgba(42,34,28,.3)" stroke-width="1"/><line x1="533" y1="290" x2="533" y2="632" stroke="rgba(42,34,28,.3)" stroke-width="1"/><line x1="540" y1="290" x2="540" y2="632" stroke="rgba(42,34,28,.3)" stroke-width="1"/><line x1="547" y1="290" x2="547" y2="632" stroke="rgba(42,34,28,.3)" stroke-width="1"/><line x1="554" y1="290" x2="554" y2="632" stroke="rgba(42,34,28,.3)" stroke-width="1"/><rect x="622" y="282" width="44" height="358" fill="none" stroke="#2a221c" stroke-width="1.6"/><line x1="630" y1="290" x2="630" y2="632" stroke="rgba(42,34,28,.3)" stroke-width="1"/><line x1="637" y1="290" x2="637" y2="632" stroke="rgba(42,34,28,.3)" stroke-width="1"/><line x1="644" y1="290" x2="644" y2="632" stroke="rgba(42,34,28,.3)" stroke-width="1"/><line x1="651" y1="290" x2="651" y2="632" stroke="rgba(42,34,28,.3)" stroke-width="1"/><line x1="658" y1="290" x2="658" y2="632" stroke="rgba(42,34,28,.3)" stroke-width="1"/><rect x="726" y="282" width="44" height="358" fill="none" stroke="#2a221c" stroke-width="1.6"/><line x1="734" y1="290" x2="734" y2="632" stroke="rgba(42,34,28,.3)" stroke-width="1"/><line x1="741" y1="290" x2="741" y2="632" stroke="rgba(42,34,28,.3)" stroke-width="1"/><line x1="748" y1="290" x2="748" y2="632" stroke="rgba(42,34,28,.3)" stroke-width="1"/><line x1="755" y1="290" x2="755" y2="632" stroke="rgba(42,34,28,.3)" stroke-width="1"/><line x1="762" y1="290" x2="762" y2="632" stroke="rgba(42,34,28,.3)" stroke-width="1"/><rect x="830" y="282" width="44" height="358" fill="none" stroke="#2a221c" stroke-width="1.6"/><line x1="838" y1="290" x2="838" y2="632" stroke="rgba(42,34,28,.3)" stroke-width="1"/><line x1="845" y1="290" x2="845" y2="632" stroke="rgba(42,34,28,.3)" stroke-width="1"/><line x1="852" y1="290" x2="852" y2="632" stroke="rgba(42,34,28,.3)" stroke-width="1"/><line x1="859" y1="290" x2="859" y2="632" stroke="rgba(42,34,28,.3)" stroke-width="1"/><line x1="866" y1="290" x2="866" y2="632" stroke="rgba(42,34,28,.3)" stroke-width="1"/><rect x="934" y="282" width="44" height="358" fill="none" stroke="#2a221c" stroke-width="1.6"/><line x1="942" y1="290" x2="942" y2="632" stroke="rgba(42,34,28,.3)" stroke-width="1"/><line x1="949" y1="290" x2="949" y2="632" stroke="rgba(42,34,28,.3)" stroke-width="1"/><line x1="956" y1="290" x2="956" y2="632" stroke="rgba(42,34,28,.3)" stroke-width="1"/><line x1="963" y1="290" x2="963" y2="632" stroke="rgba(42,34,28,.3)" stroke-width="1"/><line x1="970" y1="290" x2="970" y2="632" stroke="rgba(42,34,28,.3)" stroke-width="1"/><rect x="1038" y="282" width="44" height="358" fill="none" stroke="#2a221c" stroke-width="1.6"/><line x1="1046" y1="290" x2="1046" y2="632" stroke="rgba(42,34,28,.3)" stroke-width="1"/><line x1="1053" y1="290" x2="1053" y2="632" stroke="rgba(42,34,28,.3)" stroke-width="1"/><line x1="1060" y1="290" x2="1060" y2="632" stroke="rgba(42,34,28,.3)" stroke-width="1"/><line x1="1067" y1="290" x2="1067" y2="632" stroke="rgba(42,34,28,.3)" stroke-width="1"/><line x1="1074" y1="290" x2="1074" y2="632" stroke="rgba(42,34,28,.3)" stroke-width="1"/><rect x="490" y="640" width="620" height="16" fill="none" stroke="#2a221c" stroke-width="1.4"/><rect x="472" y="656" width="656" height="16" fill="none" stroke="#2a221c" stroke-width="1.4"/><rect x="454" y="672" width="692" height="16" fill="none" stroke="#2a221c" stroke-width="1.4"/><circle cx="800" cy="216" r="14" fill="#661227"/><line x1="64" y1="812" x2="1536" y2="812" stroke="rgba(42,34,28,.3)" stroke-width="1"/><text x="64" y="848" font-family="Georgia,serif" font-size="22" letter-spacing="6" fill="#661227">✦ NUVELLUM · CRIME</text><rect width="1600" height="900" filter="url(#g)"/></svg>