<svg xmlns="http://www.w3.org/2000/svg" viewBox="0 0 1600 900" width="1600" height="900"><defs><filter id="g"><feTurbulence type="fractalNoise" baseFrequency=".9" numOctaves="2" stitchTiles="stitch"/><feColorMatrix values="0 0 0 0 .36 0 0 0 0 .27 0 0 0 0 .17 0 0 0 .06 0"/></filter></defs><rect width="1600" height="900" fill="#efe8db"/><rect x="300" y="280" width="1000" height="300" fill="none" stroke="#2a221c" stroke-width="2.2"/><rect x="314" y="294" width="20" height="20" rx="3" fill="none" stroke="#2a221c" stroke-width="1.2"/><rect x="314" y="546" width="20" height="20" rx="3" fill="none" stroke="#2a221c" stroke-width="1.2"/><rect x="353.4" y="294" width="20" height="20" rx="3" fill="none" stroke="#2a221c" stroke-width="1.2"/><rect x="353.4" y="546" width="20" height="20" rx="3" fill="none" stroke="#2a221c" stroke-width="1.2"/><rect x="392.8" y="294" width="20" height="20" rx="3" fill="none" stroke="#2a221c" stroke-width="1.2"/><rect x="392.8" y="546" width="20" height="20" rx="3" fill="none" stroke="#2a221c" stroke-width="1.2"/><rect x="432.2" y="294" width="20" height="20" rx="3" fill="none" stroke="#2a221c" stroke-width="1.2"/><rect x="432.2" y="546" width="20" height="20" rx="3" fill="none" stroke="#2a221c" stroke-width="1.2"/><rect x="471.6" y="294" width="20" height="20" rx="3" fill="none" stroke="#2a221c" stroke-width="1.2"/><rect x="471.6" y="546" width="20" height="20" rx="3" fill="none" stroke="#2a221c" stroke-width="1.2"/><rect x="511" y="294" width="20" height="20" rx="3" fill="none" stroke="#2a221c" stroke-width="1.2"/><rect x="511" y="546" width="20" height="20" rx="3" fill="none" stroke="#2a221c" stroke-width="1.2"/><rect x="550.4" y="294" width="20" height="20" rx="3" fill="none" stroke="#2a221c" stroke-width="1.2"/><rect x="550.4" y="546" width="20" height="20" rx="3" fill="none" stroke="#2a221c" stroke-width="1.2"/><rect x="589.8" y="294" width="20" height="20" rx="3" fill="none" stroke="#2a221c" stroke-width="1.2"/><rect x="589.8" y="546" width="20" height="20" rx="3" fill="none" stroke="#2a221c" stroke-width="1.2"/><rect x="629.2" y="294" width="20" height="20" rx="3" fill="none" stroke="#2a221c" stroke-width="1.2"/><rect x="629.2" y="546" width="20" height="20" rx="3" fill="none" stroke="#2a221c" stroke-width="1.2"/><rect x="668.5999999999999" y="294" width="20" height="20" rx="3" fill="none" stroke="#2a221c" stroke-width="1.2"/><rect x="668.5999999999999" y="546" width="20" height="20" rx="3" fill="none" stroke="#2a221c" stroke-width="1.2"/><rect x="708" y="294" width="20" height="20" rx="3" fill="none" stroke="#2a221c" stroke-width="1.2"/><rect x="708" y="546" width="20" height="20" rx="3" fill="none" stroke="#2a221c" stroke-width="1.2"/><rect x="747.4" y="294" width="20" height="20" rx="3" fill="none" stroke="#2a221c" stroke-width="1.2"/><rect x="747.4" y="546" width="20" height="20" rx="3" fill="none" stroke="#2a221c" stroke-width="1.2"/><rect x="786.8" y="294" width="20" height="20" rx="3" fill="none" stroke="#2a221c" stroke-width="1.2"/><rect x="786.8" y="546" width="20" height="20" rx="3" fill="none" stroke="#2a221c" stroke-width="1.2"/><rect x="826.1999999999999" y="294" width="20" height="20" rx="3" fill="none" stroke="#2a221c" stroke-width="1.2"/><rect x="826.1999999999999" y="546" width="20" height="20" rx="3" fill="none" stroke="#2a221c" stroke-width="1.2"/><rect x="865.6" y="294" width="20" height="20" rx="3" fill="none" stroke="#2a221c" stroke-width="1.2"/><rect x="865.6" y="546" width="20" height="20" rx="3" fill="none" stroke="#2a221c" stroke-width="1.2"/><rect x="905" y="294" width="20" height="20" rx="3" fill="none" stroke="#2a221c" stroke-width="1.2"/><rect x="905" y="546" width="20" height="20" rx="3" fill="none" stroke="#2a221c" stroke-width="1.2"/><rect x="944.4" y="294" width="20" height="20" rx="3" fill="none" stroke="#2a221c" stroke-width="1.2"/><rect x="944.4" y="546" width="20" height="20" rx="3" fill="none" stroke="#2a221c" stroke-width="1.2"/><rect x="983.8" y="294" width="20" height="20" rx="3" fill="none" stroke="#2a221c" stroke-width="1.2"/><rect x="983.8" y="546" width="20" height="20" rx="3" fill="none" stroke="#2a221c" stroke-width="1.2"/><rect x="1023.1999999999999" y="294" width="20" height="20" rx="3" fill="none" stroke="#2a221c" stroke-width="1.2"/><rect x="1023.1999999999999" y="546" width="20" height="20" rx="3" fill="none" stroke="#2a221c" stroke-width="1.2"/><rect x="1062.6" y="294" width="20" height="20" rx="3" fill="none" stroke="#2a221c" stroke-width="1.2"/><rect x="1062.6" y="546" width="20" height="20" rx="3" fill="none" stroke="#2a221c" stroke-width="1.2"/><rect x="1102" y="294" width="20" height="20" rx="3" fill="none" stroke="#2a221c" stroke-width="1.2"/><rect x="1102" y="546" width="20" height="20" rx="3" fill="none" stroke="#2a221c" stroke-width="1.2"/><rect x="1141.4" y="294" width="20" height="20" rx="3" fill="none" stroke="#2a221c" stroke-width="1.2"/><rect x="1141.4" y="546" width="20" height="20" rx="3" fill="none" stroke="#2a221c" stroke-width="1.2"/><rect x="1180.8" y="294" width="20" height="20" rx="3" fill="none" stroke="#2a221c" stroke-width="1.2"/><rect x="1180.8" y="546" width="20" height="20" rx="3" fill="none" stroke="#2a221c" stroke-width="1.2"/><rect x="1220.1999999999998" y="294" width="20" height="20" rx="3" fill="none" stroke="#2a221c" stroke-width="1.2"/><rect x="1220.1999999999998" y="546" width="20" height="20" rx="3" fill="none" stroke="#2a221c" stroke-width="1.2"/><rect x="1259.6" y="294" width="20" height="20" rx="3" fill="none" stroke="#2a221c" stroke-width="1.2"/><rect x="1259.6" y="546" width="20" height="20" rx="3" fill="none" stroke="#2a221c" stroke-width="1.2"/><rect x="330" y="336" width="300" height="188" fill="none" stroke="#2a221c" stroke-width="1.4"/><path d="M330 471.36 L435 420.6 L510 452.56 L630 411.2" fill="none" stroke="rgba(42,34,28,.3)" stroke-width="1.2"/><rect x="650" y="336" width="300" height="188" fill="none" stroke="#661227" stroke-width="2.4"/><path d="M650 471.36 L755 430 L830 452.56 L950 411.2" fill="none" stroke="rgba(42,34,28,.3)" stroke-width="1.2"/><rect x="970" y="336" width="300" height="188" fill="none" stroke="#2a221c" stroke-width="1.4"/><path d="M970 471.36 L1075 439.4 L1150 452.56 L1270 411.2" fill="none" stroke="rgba(42,34,28,.3)" stroke-width="1.2"/><line x1="64" y1="812" x2="1536" y2="812" stroke="rgba(42,34,28,.3)" stroke-width="1"/><text x="64" y="848" font-family="Georgia,serif" font-size="22" letter-spacing="6" fill="#661227">✦ NUVELLUM · FILM &amp; TV</text><rect width="1600" height="900" filter="url(#g)"/></svg>