<svg xmlns="http://www.w3.org/2000/svg" viewBox="0 0 1600 900" width="1600" height="900"><defs><filter id="g"><feTurbulence type="fractalNoise" baseFrequency=".9" numOctaves="2" stitchTiles="stitch"/><feColorMatrix values="0 0 0 0 .36 0 0 0 0 .27 0 0 0 0 .17 0 0 0 .06 0"/></filter></defs><rect width="1600" height="900" fill="#efe8db"/><line x1="380" y1="680" x2="1220" y2="680" stroke="#2a221c" stroke-width="2.2"/><path d="M650 280 L797.9 365 L650 450 L502.1 365 Z" fill="#efe8db" stroke="#2a221c" stroke-width="2"/><path d="M502.1 365 L650 450 L650 620 L502.1 535 Z" fill="#efe8db" stroke="#2a221c" stroke-width="2"/><path d="M797.9 365 L650 450 L650 620 L797.9 535 Z" fill="#efe8db" stroke="#2a221c" stroke-width="2"/><line x1="666.4" y1="450" x2="666.4" y2="610.6" stroke="rgba(42,34,28,.16)" stroke-width="1"/><line x1="682.9" y1="450" x2="682.9" y2="601.1" stroke="rgba(42,34,28,.16)" stroke-width="1"/><line x1="699.3" y1="450" x2="699.3" y2="591.7" stroke="rgba(42,34,28,.16)" stroke-width="1"/><line x1="715.7" y1="450" x2="715.7" y2="582.2" stroke="rgba(42,34,28,.16)" stroke-width="1"/><line x1="732.2" y1="450" x2="732.2" y2="572.8" stroke="rgba(42,34,28,.16)" stroke-width="1"/><line x1="748.6" y1="450" x2="748.6" y2="563.3" stroke="rgba(42,34,28,.16)" stroke-width="1"/><line x1="765" y1="450" x2="765" y2="553.9" stroke="rgba(42,34,28,.16)" stroke-width="1"/><line x1="781.5" y1="450" x2="781.5" y2="544.4" stroke="rgba(42,34,28,.16)" stroke-width="1"/><ellipse cx="650" cy="365" rx="15.3" ry="9.3" fill="#661227"/><ellipse cx="582" cy="331" rx="15.3" ry="9.3" fill="#661227"/><ellipse cx="718" cy="399" rx="15.3" ry="9.3" fill="#661227"/><ellipse cx="548" cy="458.5" rx="15.3" ry="9.3" fill="#661227"/><ellipse cx="604.1" cy="543.5" rx="15.3" ry="9.3" fill="#661227"/><path d="M990 380 L1094.4 440 L990 500 L885.6 440 Z" fill="#efe8db" stroke="#2a221c" stroke-width="2"/><path d="M885.6 440 L990 500 L990 620 L885.6 560 Z" fill="#efe8db" stroke="#2a221c" stroke-width="2"/><path d="M1094.4 440 L990 500 L990 620 L1094.4 560 Z" fill="#efe8db" stroke="#2a221c" stroke-width="2"/><line x1="1001.6" y1="500" x2="1001.6" y2="613.3" stroke="rgba(42,34,28,.16)" stroke-width="1"/><line x1="1013.2" y1="500" x2="1013.2" y2="606.7" stroke="rgba(42,34,28,.16)" stroke-width="1"/><line x1="1024.8" y1="500" x2="1024.8" y2="600" stroke="rgba(42,34,28,.16)" stroke-width="1"/><line x1="1036.4" y1="500" x2="1036.4" y2="593.3" stroke="rgba(42,34,28,.16)" stroke-width="1"/><line x1="1048" y1="500" x2="1048" y2="586.7" stroke="rgba(42,34,28,.16)" stroke-width="1"/><line x1="1059.6" y1="500" x2="1059.6" y2="580" stroke="rgba(42,34,28,.16)" stroke-width="1"/><line x1="1071.2" y1="500" x2="1071.2" y2="573.3" stroke="rgba(42,34,28,.16)" stroke-width="1"/><line x1="1082.8" y1="500" x2="1082.8" y2="566.7" stroke="rgba(42,34,28,.16)" stroke-width="1"/><ellipse cx="990" cy="440" rx="10.8" ry="6.6" fill="#2a221c"/><ellipse cx="942" cy="416" rx="10.8" ry="6.6" fill="#2a221c"/><ellipse cx="1038" cy="464" rx="10.8" ry="6.6" fill="#2a221c"/><ellipse cx="918" cy="506" rx="10.8" ry="6.6" fill="#2a221c"/><ellipse cx="957.6" cy="566" rx="10.8" ry="6.6" fill="#2a221c"/><line x1="64" y1="812" x2="1536" y2="812" stroke="rgba(42,34,28,.3)" stroke-width="1"/><text x="64" y="848" font-family="Georgia,serif" font-size="22" letter-spacing="6" fill="#661227">✦ NUVELLUM · GAMING</text><rect width="1600" height="900" filter="url(#g)"/></svg>